<!-- This is an AI tools demo graphic -->
<svg xmlns="http://www.w3.org/2000/svg" width="600" height="400" viewBox="0 0 600 400" fill="none">
  <rect width="600" height="400" rx="16" fill="#111827" />
  
  <!-- Background Elements -->
  <circle cx="100" cy="80" r="60" fill="url(#paint_circle1)" opacity="0.3" />
  <circle cx="500" cy="320" r="80" fill="url(#paint_circle2)" opacity="0.3" />
  
  <!-- Center UI Element -->
  <rect x="150" y="80" width="300" height="240" rx="12" fill="#1F2937" stroke="url(#paint_border)" stroke-width="2" />
  
  <!-- Content Elements -->
  <rect x="170" y="100" width="260" height="30" rx="6" fill="#374151" />
  <rect x="170" y="140" width="260" height="80" rx="6" fill="#374151" />
  <rect x="170" y="230" width="120" height="30" rx="6" fill="#8B5CF6" />
  <rect x="300" y="230" width="130" height="30" rx="6" fill="#1F2937" stroke="#8B5CF6" stroke-width="2" />
  
  <!-- Decoration Elements -->
  <circle cx="190" cy="115" r="8" fill="#10B981" />
  <circle cx="220" cy="115" r="8" fill="#8B5CF6" />
  <circle cx="250" cy="115" r="8" fill="#3B82F6" />
  
  <!-- Text Lines -->
  <rect x="200" y="250" width="60" height="5" rx="2.5" fill="white" />
  <rect x="330" y="250" width="70" height="5" rx="2.5" fill="#8B5CF6" />
  
  <!-- Code/Content Representation -->
  <rect x="180" y="150" width="240" height="5" rx="2.5" fill="white" opacity="0.7" />
  <rect x="180" y="165" width="200" height="5" rx="2.5" fill="white" opacity="0.7" />
  <rect x="180" y="180" width="220" height="5" rx="2.5" fill="white" opacity="0.7" />
  <rect x="180" y="195" width="180" height="5" rx="2.5" fill="white" opacity="0.7" />
  
  <!-- Gradients -->
  <defs>
    <linearGradient id="paint_circle1" x1="40" y1="20" x2="160" y2="140" gradientUnits="userSpaceOnUse">
      <stop offset="0" stop-color="#8B5CF6" />
      <stop offset="1" stop-color="#10B981" />
    </linearGradient>
    <linearGradient id="paint_circle2" x1="420" y1="240" x2="580" y2="400" gradientUnits="userSpaceOnUse">
      <stop offset="0" stop-color="#8B5CF6" />
      <stop offset="1" stop-color="#10B981" />
    </linearGradient>
    <linearGradient id="paint_border" x1="150" y1="80" x2="450" y2="320" gradientUnits="userSpaceOnUse">
      <stop offset="0" stop-color="#8B5CF6" />
      <stop offset="1" stop-color="#10B981" />
    </linearGradient>
  </defs>
</svg>
