<!-- This is an SVG logo file for Intruitia -->
<svg xmlns="http://www.w3.org/2000/svg" width="180" height="50" viewBox="0 0 180 50" fill="none">
  <path d="M20.5 10C13.0442 10 7 16.0442 7 23.5C7 30.9558 13.0442 37 20.5 37H30.5C37.9558 37 44 30.9558 44 23.5C44 16.0442 37.9558 10 30.5 10H20.5Z" fill="url(#paint0_linear)" />
  <path d="M22 16C22 14.8954 22.8954 14 24 14H27C28.1046 14 29 14.8954 29 16V31C29 32.1046 28.1046 33 27 33H24C22.8954 33 22 32.1046 22 31V16Z" fill="white" />
  <path d="M32 20.5C32 19.1193 33.1193 18 34.5 18C35.8807 18 37 19.1193 37 20.5V26.5C37 27.8807 35.8807 29 34.5 29C33.1193 29 32 27.8807 32 26.5V20.5Z" fill="white" />
  <path d="M14 20.5C14 19.1193 15.1193 18 16.5 18C17.8807 18 19 19.1193 19 20.5V26.5C19 27.8807 17.8807 29 16.5 29C15.1193 29 14 27.8807 14 26.5V20.5Z" fill="white" />
  
  <!-- Text part of the logo -->
  <path d="M56 18H59V32H56V18Z" fill="white" />
  <path d="M62 18H65V19.5C65.8333 18.5 67.1667 18 68.5 18C71.5 18 74 20.5 74 23.5V32H71V24C71 22.3431 69.6569 21 68 21C66.3431 21 65 22.3431 65 24V32H62V18Z" fill="white" />
  <path d="M77 25.5C77 21.3579 80.3579 18 84.5 18C88.6421 18 92 21.3579 92 25.5C92 29.6421 88.6421 33 84.5 33C80.3579 33 77 29.6421 77 25.5ZM89 25.5C89 22.4624 86.5376 20 83.5 20C80.4624 20 78 22.4624 78 25.5C78 28.5376 80.4624 31 83.5 31C86.5376 31 89 28.5376 89 25.5Z" fill="white" />
  <path d="M95 18H98V19.5C98.8333 18.5 100.167 18 101.5 18C104.5 18 107 20.5 107 23.5V32H104V24C104 22.3431 102.657 21 101 21C99.3431 21 98 22.3431 98 24V32H95V18Z" fill="white" />
  <path d="M110 32V18H113V19.5C113.833 18.5 115.167 18 116.5 18C119.5 18 122 20.5 122 23.5V32H119V24C119 22.3431 117.657 21 116 21C114.343 21 113 22.3431 113 24V32H110Z" fill="white" />
  <path d="M125 18H128V20C128.833 18.6667 130.4 18 132 18C132.552 18 133 18.4477 133 19V22C133 22.5523 132.552 23 132 23C130 23 128 24.5 128 27V32H125V18Z" fill="white" />
  <path d="M136 18H139V20C139.833 18.6667 141.4 18 143 18C143.552 18 144 18.4477 144 19V22C144 22.5523 143.552 23 143 23C141 23 139 24.5 139 27V32H136V18Z" fill="white" />
  <path d="M146 25.5C146 21.3579 149.358 18 153.5 18C157.642 18 161 21.3579 161 25.5C161 29.6421 157.642 33 153.5 33C149.358 33 146 29.6421 146 25.5ZM158 25.5C158 22.4624 155.538 20 152.5 20C149.462 20 147 22.4624 147 25.5C147 28.5376 149.462 31 152.5 31C155.538 31 158 28.5376 158 25.5Z" fill="white" />
  
  <!-- Gradients -->
  <defs>
    <linearGradient id="paint0_linear" x1="7" y1="10" x2="44" y2="37" gradientUnits="userSpaceOnUse">
      <stop offset="0" stop-color="#8B5CF6" />
      <stop offset="1" stop-color="#10B981" />
    </linearGradient>
  </defs>
</svg>
