<svg viewBox="0 0 800 600" xmlns="http://www.w3.org/2000/svg">
  <defs>
    <linearGradient id="bg" x1="0%" y1="0%" x2="100%" y2="100%">
      <stop offset="0%" style="stop-color:#1e293b;stop-opacity:1" />
      <stop offset="100%" style="stop-color:#0f172a;stop-opacity:1" />
    </linearGradient>
    <linearGradient id="timeline" x1="0%" y1="0%" x2="100%" y2="0%">
      <stop offset="0%" style="stop-color:#3b82f6;stop-opacity:1" />
      <stop offset="50%" style="stop-color:#06b6d4;stop-opacity:1" />
      <stop offset="100%" style="stop-color:#8b5cf6;stop-opacity:1" />
    </linearGradient>
  </defs>
  
  <!-- Background -->
  <rect width="800" height="600" fill="url(#bg)"/>
  
  <!-- Top Menu Bar -->
  <rect x="0" y="0" width="800" height="40" fill="#374151" opacity="0.9"/>
  <text x="20" y="25" fill="#f9fafb" font-family="Arial, sans-serif" font-size="12" font-weight="bold">AI Video Editor Pro</text>
  
  <!-- Menu Items -->
  <text x="150" y="25" fill="#d1d5db" font-family="Arial, sans-serif" font-size="11">File</text>
  <text x="180" y="25" fill="#d1d5db" font-family="Arial, sans-serif" font-size="11">Edit</text>
  <text x="210" y="25" fill="#d1d5db" font-family="Arial, sans-serif" font-size="11">View</text>
  <text x="250" y="25" fill="#d1d5db" font-family="Arial, sans-serif" font-size="11">Effects</text>
  <text x="290" y="25" fill="#d1d5db" font-family="Arial, sans-serif" font-size="11">Export</text>
  
  <!-- Left Panel - Tools -->
  <rect x="0" y="40" width="200" height="560" fill="#1f2937" opacity="0.95"/>
  <text x="20" y="65" fill="#f9fafb" font-family="Arial, sans-serif" font-size="14" font-weight="bold">Tools</text>
  
  <!-- Tool Icons -->
  <rect x="20" y="80" width="30" height="30" fill="#3b82f6" rx="4"/>
  <text x="30" y="100" fill="white" font-family="Arial, sans-serif" font-size="16">✂</text>
  <text x="60" y="100" fill="#d1d5db" font-family="Arial, sans-serif" font-size="12">Cut</text>
  
  <rect x="20" y="120" width="30" height="30" fill="#06b6d4" rx="4"/>
  <text x="28" y="140" fill="white" font-family="Arial, sans-serif" font-size="16">🎬</text>
  <text x="60" y="140" fill="#d1d5db" font-family="Arial, sans-serif" font-size="12">Transition</text>
  
  <rect x="20" y="160" width="30" height="30" fill="#8b5cf6" rx="4"/>
  <text x="28" y="180" fill="white" font-family="Arial, sans-serif" font-size="16">🎵</text>
  <text x="60" y="180" fill="#d1d5db" font-family="Arial, sans-serif" font-size="12">Audio</text>
  
  <rect x="20" y="200" width="30" height="30" fill="#f59e0b" rx="4"/>
  <text x="28" y="220" fill="white" font-family="Arial, sans-serif" font-size="16">✨</text>
  <text x="60" y="220" fill="#d1d5db" font-family="Arial, sans-serif" font-size="12">Effects</text>
  
  <!-- AI Styles Section -->
  <text x="20" y="265" fill="#f9fafb" font-family="Arial, sans-serif" font-size="14" font-weight="bold">AI Styles</text>
  
  <rect x="20" y="280" width="160" height="25" fill="#1e40af" rx="4"/>
  <text x="30" y="297" fill="white" font-family="Arial, sans-serif" font-size="11">Professional</text>
  
  <rect x="20" y="315" width="160" height="25" fill="#dc2626" rx="4"/>
  <text x="30" y="332" fill="white" font-family="Arial, sans-serif" font-size="11">Meme & Funny</text>
  
  <rect x="20" y="350" width="160" height="25" fill="#7c3aed" rx="4"/>
  <text x="30" y="367" fill="white" font-family="Arial, sans-serif" font-size="11">Cinematic</text>
  
  <rect x="20" y="385" width="160" height="25" fill="#059669" rx="4"/>
  <text x="30" y="402" fill="white" font-family="Arial, sans-serif" font-size="11">Social Story</text>
  
  <!-- Main Preview Area -->
  <rect x="200" y="40" width="480" height="350" fill="#111827" stroke="#374151" stroke-width="1"/>
  
  <!-- Video Preview -->
  <rect x="220" y="60" width="440" height="248" fill="#000000" rx="8"/>
  <rect x="240" y="80" width="400" height="208" fill="#1f2937" rx="4"/>
  
  <!-- Play button overlay -->
  <circle cx="440" cy="184" r="30" fill="#3b82f6" opacity="0.9"/>
  <polygon points="430,174 430,194 450,184" fill="white"/>
  
  <!-- Video info -->
  <text x="240" y="330" fill="#d1d5db" font-family="Arial, sans-serif" font-size="12">video_sample.mp4 - 1920x1080 - 00:02:30</text>
  <text x="240" y="350" fill="#9ca3af" font-family="Arial, sans-serif" font-size="11">AI Style: Professional | Processing: 85% Complete</text>
  
  <!-- Right Panel - Properties -->
  <rect x="680" y="40" width="120" height="560" fill="#1f2937" opacity="0.95"/>
  <text x="690" y="65" fill="#f9fafb" font-family="Arial, sans-serif" font-size="14" font-weight="bold">Properties</text>
  
  <!-- Property controls -->
  <text x="690" y="90" fill="#d1d5db" font-family="Arial, sans-serif" font-size="11">Duration</text>
  <rect x="690" y="95" width="80" height="20" fill="#374151" rx="2"/>
  <text x="695" y="107" fill="#f9fafb" font-family="Arial, sans-serif" font-size="10">00:02:30</text>
  
  <text x="690" y="135" fill="#d1d5db" font-family="Arial, sans-serif" font-size="11">Speed</text>
  <rect x="690" y="140" width="80" height="20" fill="#374151" rx="2"/>
  <rect x="690" y="140" width="40" height="20" fill="#3b82f6" rx="2"/>
  
  <!-- Timeline Area -->
  <rect x="200" y="400" width="480" height="200" fill="#1f2937" stroke="#374151" stroke-width="1"/>
  <text x="220" y="425" fill="#f9fafb" font-family="Arial, sans-serif" font-size="14" font-weight="bold">Timeline</text>
  
  <!-- Video Track -->
  <text x="220" y="450" fill="#d1d5db" font-family="Arial, sans-serif" font-size="11">Video 1</text>
  <rect x="280" y="435" width="380" height="30" fill="url(#timeline)" rx="4"/>
  <rect x="285" y="440" width="30" height="20" fill="#1e40af" rx="2"/>
  <rect x="320" y="440" width="45" height="20" fill="#06b6d4" rx="2"/>
  <rect x="370" y="440" width="35" height="20" fill="#8b5cf6" rx="2"/>
  
  <!-- Audio Track -->
  <text x="220" y="485" fill="#d1d5db" font-family="Arial, sans-serif" font-size="11">Audio 1</text>
  <rect x="280" y="470" width="380" height="20" fill="#059669" opacity="0.7" rx="2"/>
  
  <!-- Effects Track -->
  <text x="220" y="515" fill="#d1d5db" font-family="Arial, sans-serif" font-size="11">Effects</text>
  <rect x="280" y="500" width="100" height="15" fill="#f59e0b" opacity="0.8" rx="2"/>
  <rect x="400" y="500" width="80" height="15" fill="#ef4444" opacity="0.8" rx="2"/>
  
  <!-- Timeline scrubber -->
  <line x1="450" y1="430" x2="450" y2="520" stroke="#3b82f6" stroke-width="2"/>
  <circle cx="450" cy="430" r="4" fill="#3b82f6"/>
  
  <!-- Time indicators -->
  <text x="280" y="540" fill="#9ca3af" font-family="Arial, sans-serif" font-size="10">00:00</text>
  <text x="420" y="540" fill="#9ca3af" font-family="Arial, sans-serif" font-size="10">01:15</text>
  <text x="620" y="540" fill="#9ca3af" font-family="Arial, sans-serif" font-size="10">02:30</text>
  
  <!-- Bottom Controls -->
  <rect x="200" y="560" width="480" height="40" fill="#374151" opacity="0.9"/>
  
  <!-- Control buttons -->
  <circle cx="230" cy="580" r="12" fill="#3b82f6"/>
  <polygon points="225,575 225,585 235,580" fill="white"/>
  
  <circle cx="260" cy="580" r="12" fill="#374151" stroke="#6b7280" stroke-width="1"/>
  <rect x="255" y="575" width="3" height="10" fill="#d1d5db"/>
  <rect x="262" y="575" width="3" height="10" fill="#d1d5db"/>
  
  <circle cx="290" cy="580" r="12" fill="#374151" stroke="#6b7280" stroke-width="1"/>
  <rect x="285" y="575" width="10" height="10" fill="#d1d5db"/>
  
  <!-- Export button -->
  <rect x="580" y="565" width="80" height="30" fill="#10b981" rx="4"/>
  <text x="610" y="583" fill="white" font-family="Arial, sans-serif" font-size="12" text-anchor="middle">Export</text>
  
  <!-- AI Processing indicator -->
  <rect x="400" y="565" width="120" height="30" fill="#1e40af" rx="4"/>
  <text x="460" y="583" fill="white" font-family="Arial, sans-serif" font-size="11" text-anchor="middle">AI Processing...</text>
  
  <!-- Progress bar -->
  <rect x="405" y="588" width="110" height="4" fill="#374151" rx="2"/>
  <rect x="405" y="588" width="93" height="4" fill="#3b82f6" rx="2"/>
</svg>
